<?xml version="1.0" encoding="UTF-8" standalone="no"?>
<svg
   xmlns:dc="http://purl.org/dc/elements/1.1/"
   xmlns:cc="http://creativecommons.org/ns#"
   xmlns:rdf="http://www.w3.org/1999/02/22-rdf-syntax-ns#"
   xmlns:svg="http://www.w3.org/2000/svg"
   xmlns="http://www.w3.org/2000/svg"
   xmlns:sodipodi="http://sodipodi.sourceforge.net/DTD/sodipodi-0.dtd"
   xmlns:inkscape="http://www.inkscape.org/namespaces/inkscape"
   version="1.1"
   id="svg10"
   width="2540"
   height="980"
   viewBox="0 0 2540 980"
   sodipodi:docname="pokemon-logo.png.svg"
   inkscape:version="1.0.2 (e86c870879, 2021-01-15, custom)">
  <metadata
     id="metadata16">
    <rdf:RDF>
      <cc:Work
         rdf:about="">
        <dc:format>image/svg+xml</dc:format>
        <dc:type
           rdf:resource="http://purl.org/dc/dcmitype/StillImage" />
        <dc:title></dc:title>
      </cc:Work>
    </rdf:RDF>
  </metadata>
  <defs
     id="defs14" />
  <sodipodi:namedview
     pagecolor="#ffffff"
     bordercolor="#666666"
     borderopacity="1"
     objecttolerance="10"
     gridtolerance="10"
     guidetolerance="10"
     inkscape:pageopacity="0"
     inkscape:pageshadow="2"
     inkscape:window-width="1366"
     inkscape:window-height="768"
     id="namedview12"
     showgrid="true"
     fit-margin-top="0"
     fit-margin-left="0"
     fit-margin-right="0"
     fit-margin-bottom="0"
     inkscape:zoom="0.46917106"
     inkscape:cx="1230.5489"
     inkscape:cy="524.76997"
     inkscape:window-x="0"
     inkscape:window-y="0"
     inkscape:window-maximized="1"
     inkscape:current-layer="g18">
    <inkscape:grid
       type="xygrid"
       id="grid71"
       originx="1.9999994e-06"
       originy="0" />
  </sodipodi:namedview>
  <g
     inkscape:groupmode="layer"
     inkscape:label="Image"
     id="g18">
    <g
       id="g47"
       transform="translate(-67.82427,1279.6132)">
      <path
         style="fill:#fefe00"
         d="m 467.82427,-449.6132 v -10 h -10 -10 v -20 -20 h -10 -10 v -20 -20 h -10 -10 v -30 -30 h -10 -10 v -20 -20 h -10 -10 v -20 -20 h -10 -10 v -20 -20 h -10 -10 v -30 -30 h -10 -10 v -20 -20 h -10 -10 v -20 -20 h -40 -40 v -20 -20 h -10 -10 v -20 -20 h -10 -10 v -20 -20 h 20 20 v -10 -10 h 20 20 v -10 -10 h 30 30 v -10 -10 h 40 40 v -10 -10 h 50 50 v 10 10 h 30 30 v 10 10 h 20 20 v 10 10 h 10 10 v 10 10 h 10 10 v 20 20 h 10 10 v 50 50 h -10 -10 v 20 20 h -10 -10 v 10 10 h -10 -10 v 10 10 h -10 -10 v 10 10 h -10 -10 v 10 10 h -10 -10 v 10 10 h -10 -10 v 30 30 h 10 10 v 40 40 h 10 10 v 40 40 h 10 10 v 10 10 h -30 -30 v 10 10 h -20 -20 z m 80,-340 v -10 h 10 10 v -10 -10 h 10 10 v -30 -30 h -10 -10 v -10 -10 h -10 -10 v -10 -10 h -10 -10 v -10 -10 h -50 -50 v 20 20 h 10 10 v 20 20 h 30 30 v 10 10 h 10 10 v 30 30 h 10 10 z m 1760.00003,200 v -130 h -10 -10 v 30 30 h -10 -10 v 50 50 h -10 -10 v 10 10 h -30 -30 v -10 -10 h -10 -10 v -20 -20 h 10 10 v -20 -20 h 10 10 v -20 -20 h 10 10 v -20 -20 h 10 10 v -60 -60 h -10 -10 v -20 -20 h -10 -10 v -50 -50 h -20 -20 v -20 -20 h 40 40 v 10 10 h 40 40 v 10 10 h 10 10 v 70 70 h 10 10 v 30 30 h 10 10 v -30 -30 h 10 10 v -40 -40 h 10 10 v -20 -20 h 40 40 v 10 10 h 20 20 v 10 10 h -10 -10 v 30 30 h -10 -10 v 30 30 h -10 -10 v 30 30 h -10 -10 v 30 30 h -10 -10 v 30 30 h -10 -10 v 30 30 h -10 -10 v 30 30 h -10 -10 v 20 20 h -40 -40 z m -1580.00003,20 v -10 h -20 -20 v -10 -10 h -10 -10 v -10 -10 h -10 -10 v -20 -20 h -10 -10 v -40 -40 h 10 10 v -20 -20 h 10 10 v -10 -10 h 10 10 v -10 -10 h 10 10 v -10 -10 h 20 20 v -10 -10 h 50 50 v 10 10 h 20 20 v 10 10 h 10 10 v 20 20 h 10 10 v 50 50 h -10 -10 v 20 20 h -10 -10 v 10 10 h -10 -10 v 10 10 h -10 -10 v 10 10 h -20 -20 v 10 10 h -40 -40 z m 100,-120 v -10 h 10 10 v -10 -10 h 10 10 v -20 -20 h -10 -10 v 10 10 h -30 -30 v -10 -10 h -10 -10 v -20 -20 h 10 10 v -10 -10 h -20 -20 v 10 10 h -10 -10 v 40 40 h 10 10 v 10 10 h 10 10 v 10 10 h 30 30 z m 120,80 v -50 h 10 10 v -70 -70 h -10 -10 v -20 -20 h -10 -10 v -50 -50 h -10 -10 v -30 -30 h -20 -20 v -20 -20 h 30 30 v -10 -10 h 40 40.00003 v 60 60 h 20 20 v -20 -20 h 10 10 v -10 -10 h 10 10 v -20 -20 h 10 10 v -10 -10 h 20 20 v 10 10 h 10 10 v 10 10 h 10 10 v 10 10 h 10 10 v 30 30 h -10 -10 v 10 10 h -10 -10 v 10 10 h -10 -10 v 10 10 h -10 -10 v 10 10 h -10 -10 v 10 10 h -10 -10 v 10 10 h 10 10 v 10 10 h 30 30 v 10 10 h 20 20 v 10 10 h 10 10 v 10 10 h 10 10 v 10 10 h 10 10 v 10 10 h 20 20 v 10 10 h 30 30 v 50 50 h -10 -10 v -10 -10 h -20 -20 v -10 -10 h -20 -20 v -10 -10 h -30 -30 v -10 -10 h -10 -10 v -10 -10 h -20 -20 v -10 -10 h -20 -20 v -10 -10 h -20 -20 v -10 -10 h -20 -20 v 90 90 h -40.00003 -40 z m 920.00003,-40 v -90 h -10 -10 v -30 -30 h -10 -10 v 30 30 h -10 -10 v 30 30 h -10 -10 v -10 -10 h -10 -10 v -20 -20 h -10 -10 v -20 -20 h -20 -20 v 60 60 h -10 -10 v 10 10 h -10 -10 v -10 -10 h -40 -40 v -20 -20 h 10 10 v -30 -30 h 10 10 v -10 -10 h 10 10 v -20 -20 h -10 -10 v -60 -60 h 10 10 v -50 -50 h 10 10 v -10 -10 h 40 40 v 10 10 h 10 10 v 30 30 h 10 10 v 20 20 h 10 10 v -40 -40 h 10 10 v -30 -30 h 40 40 v 60 60 h 10 10 v 60 60 h -10 -10 v 20 20 h -10 -10 v 70 70 h 10 10 v 20 20 h 10 10 v 10 10 h 20 20 v 10 10 h 10 10 v 10 10 h -60 -60 z m 140,20 v -10 h -20 -20 v -10 -10 h -10 -10 v -10 -10 h -10 -10 v -50 -50 h 10 10 v -20 -20 h 10 10 v -20 -20 h 20 20 v -10 -10 h 20 20 v -10 -10 h 40 40 v 10 10 h 20 20 v 10 10 h 10 10 v 20 20 h 10 10 v 50 50 h -10 -10 v 20 20 h -10 -10 v 10 10 h -10 -10 v 10 10 h -10 -10 v 10 10 h -60 -60 z m 120,-120 v -10 h 10 10 v -20 -20 h -10 -10 v 10 10 h -40 -40 v -30 -30 h -10 -10 v 10 10 h -10 -10 v 20 20 h 10 10 v 20 20 h 50 50 z m -780,20 v -10 h -30 -30 v -10 -10 h -10 -10 v -10 -10 h -10 -10 v -20 -20 h -10 -10 v -30 -30 h 10 10 v -30 -30 h 10 10 v -10 -10 h 10 10 v -10 -10 h 10 10 v -10 -10 h 20 20 v -10 -10 h 80 80 v 10 10 h 10 10 v 10 10 h 10 10 v 10 10 h -10 -10 v 10 10 h -10 -10 v 10 10 h -10 -10 v 10 10 h -10 -10 v 10 10 h -10 -10 v 10 10 h -10 -10 v 10 10 h -10 -10 v 10 10 h 30 30 v -10 -10 h 20 20 v -10 -10 h 10 10 v 10 10 h 10 10 v 10 10 h 10 10 v 10 10 h 10 10 v 10 10 h -20 -20 v 10 10 h -10 -10 v 10 10 h -30 -30 v 10 10 h -60 -60 z m 0,-150 v -20 h 30 30 v -10 -10 h 10 10 v -10 -10 h 10 10 v -10 -10 h -40 -40 v 10 10 h -10 -10 v 10 10 h -10 -10 v 30 30 h 10 10 z m -180,50 v -10 h 10 10 v 10 10 h -10 -10 z m 400,-60 v -10 h 10 10 v 10 10 h -10 -10 z m -200,-220 v -10 h 10 10 v -20 -20 h 10 10 v -10 -10 h 10 10 v -10 -10 h 10 10 v -10 -10 h 10 10 v 10 10 h 10 10 v 10 10 h 10 10 v 10 10 h -10 -10 v 10 10 h -20 -20 v 10 10 h -20 -20 v 10 10 h -20 -20 z"
         id="path28" />
      <path
         style="fill:#2753bc"
         d="m 2367.8243,-309.6132 v -10 h -20 -20 v -10 -10 h -40 -40 v -10 -10 h -10 -10 v -30 -30 h -50 -50 v -10 -10 h -20 -20 v -30 -30 h -50 -50 v 40 40 h -20 -20 v -10 -10 h -60 -60 v -10 -10 h -20 -20 v -40 -40 h -10 -10 v 10 10 h -10 -10 v -10 -10 h -10 -10 v -10 -10 h -10 -10 v -10 -10 h -10 -10 v 30 30 h -30 -30 v -10 -10 h -60 -60 v -40 -40 h -20 -20 v 10 10 h -30 -30 v -40 -40 h 40 40 v -10 -10 h 20 20 v -10 -10 h 10 10 v 40 40 h 10 10 v 10 10 h 70 70 v 10 10 h 10 10 v -40 -40 h 10 10 v 10 10 h 10 10 v 10 10 h 10 10 v 20 20 h 10 10 v -10 -10 h 10 10 v 40 40 h 10 10 v 10 10 h 90 90 v -30 -30 h 40 40 v -10 -10 h 10 10 v 40 40 h 50 50 v 10 10 h 20 20 v 30 30 h 30 30 v 10 10 h 30 30 v 60 60 h -10 -10 z m -1980.00003,-30 v -20 h -10 -10 v -20 -20 h -10 -10 v -20 -20 h -10 -10 v -20 -20 h -10 -10 v -30 -30 h -10 -10 v -20 -20 h -10 -10 v -20 -20 h -10 -10 v -20 -20 h -10 -10 v -30 -30 h -20 -20 v 10 10 h -10 -10 v -10 -10 h -10 -10 v -20 -20 h -10 -10 v -20 -20 h -10 -10 v -10 -10 h -10.000001 -10 v -20 -20 h -10 -10 v -30 -30 h 20 20.000001 v -20 -20 h 10 10 v 20 20 h 10 10 v 20 20 h 10 10 v 10 10 h 10 10 v 20 20 h 10 10 v 10 10 h 30 30 v 20 20 h 10 10 v 20 20 h 10 10 v 20 20 h 10 10 v 30 30 h 10 10 v 20 20 h 10 10 v 20 20 h 10 10 v 20 20 h 10 10 v 20 20 h 10 10 v 30 30 h 10 10 v 10 10 h 20 20 v -10 -10 h 10 10 v -10 -10 h 20 20 v 10 10 h 10 10 v 30 30 h -30 -30 v 10 10 h -60 -60 z m 180,-90 v -10 h 20 20 v 10 10 h -20 -20 z m 300,-20 v -30 h -20 -20 v 10 10 h -20 -20 v 10 10 h -70 -70 v -10 -10 h -10 -10 v -10 -10 h -20 -20 v -40 -40 h -10 -10 v -40 -40 h -10 -10 v -20 -20 h 10 10 v -10 -10 h 20 20 v 40 40 h 10 10 v 20 20 h 10 10 v 10 10 h 10 10 v 10 10 h 20 20 v 10 10 h 50 50 v -10 -10 h 20 20 v -10 -10 h 20 20 v -10 -10 h 10 10 v 10 10 h 10 10 v 20 20 h 50 50.00003 v 40 40 h -50.00003 -50 v 10 10 h -30 -30 z m 1540.00003,20 v -10 h 10 10 v 10 10 h -10 -10 z m -1960.00003,-20 v -10 h 10 10 v 10 10 h -10 -10 z m 60,0 v -10 h 10 10 v 10 10 h -10 -10 z m 820.00003,0 v -10 h -20 -20 v -10 -10 h -20 -20 v -10 -10 h -20 -20 v -10 -10 h -20 -20 v -10 -10 h -20 -20 v -10 -10 h -20 -20 v -10 -10 h -10 -10 v -50 -50 h 10 10 v 10 10 h 20 20 v 10 10 h 30 30 v 10 10 h 20 20 v 10 10 h 20 20 v 10 10 h 10 10 v 10 10 h 30 30 v 10 10 h 20 20 v 10 10 h -10 -10 v 30 30 h 10 10 v 10 10 h -30 -30 z m 1020,0 v -10 h 20 20 v -20 -20 h 10 10 v 20 20 h -10 -10 v 10 10 h -20 -20 z m -1920.00003,-40 v -10 h 10 10 v 10 10 h -10 -10 z m 120,-10 v -20 h 10 10 v 20 20 h -10 -10 z m 1880.00003,10 v -10 h 10 10 v 10 10 h -10 -10 z m -1020,-40 v -10 h 10 10 v 10 10 h -10 -10 z m 1000,-10 v -20 h 10 10 v 20 20 h -10 -10 z m -1460.00003,-10 v -10 h 20 20 v 10 10 h -20 -20 z m 1220.00003,0 v -10 h 10 10 v 10 10 h -10 -10 z m 80,0 v -10 h 10 10 v 10 10 h -10 -10 z m 200,0 v -10 h 10 10 v 10 10 h -10 -10 z m -1920.00003,-20 v -10 h 10 10 v 10 10 h -10 -10 z m 180,0 v -10 h 10 10 v 10 10 h -10 -10 z m 100,0 v -10 h 10 10 v 10 10 h -10 -10 z m -420,-20 v -10 h 10 10 v 10 10 h -10 -10 z m 280,0 v -10 h -10 -10 v -10 -10 h 10 10 v 10 10 h 10 10 v 10 10 h -10 -10 z m 180,0 v -10 h 10 10 v -10 -10 h 10 10 v -10 -10 h 10 10 v 10 10 h -10 -10 v 10 10 h -10 -10 v 10 10 h -10 -10 z m 480.00003,0 v -10 h 10 10 v 10 10 h -10 -10 z m 40,-30 v -40 h 10 10 v 40 40 h -10 -10 z m 1060,20 v -20 h 10 10 v 20 20 h -10 -10 z m -1140,-10 v -10 h 10 10 v 10 10 h -10 -10 z m 640,0 v -10 h -10 -10 v -10 -10 h 10 10 v 10 10 h 10 10 v 10 10 h -10 -10 z m 240,0 v -10 h 10 10 v 10 10 h -10 -10 z m 300,0 v -10 h 10 10 v 10 10 h -10 -10 z m -2100.00003,-20 v -10 h 10 10 v 10 10 h -10 -10 z m 880.00003,0 v -10 h 10 10 v 10 10 h -10 -10 z m 720,0 v -10 h -10 -10 v -10 -10 h -10 -10 v -10 -10 h 10 10 v 10 10 h 10 10 v 10 10 h 20 20 v 10 10 h -20 -20 z m 160,0 v -10 h 10 10 v -10 -10 h 10 10 v 10 10 h -10 -10 v 10 10 h -10 -10 z m 140,-10 v -20 h 10 10 v 20 20 h -10 -10 z m -1760.00003,-10 v -10 h 10 10 v 10 10 h -10 -10 z m 120,0 v -10 h 10 10 v 10 10 h -10 -10 z m 980.00003,0 v -10 h 30 30 v 10 10 h -30 -30 z m 80,0 v -10 h 10 10 v 10 10 h -10 -10 z m 500,0 v -10 h 10 10 v 10 10 h -10 -10 z m -1840.00003,-20 v -10 h 10 10 v 10 10 h -10 -10 z m 560,0 v -10 h 10 10 v 10 10 h -10 -10 z m 40,0 v -10 h 10 10 v 10 10 h -10 -10 z m 220.00003,0 v -10 h 10 10 v 10 10 h -10 -10 z m 720,0 v -10 h 10 10 v 10 10 h -10 -10 z m 560,0 v -10 h 10 10 v 10 10 h -10 -10 z m 40,0 v -10 h 10 10 v 10 10 h -10 -10 z m -1980.00003,-20 v -10 h 10 10 v -10 -10 h 10 10 v -10 -10 h 10 10 v -10 -10 h 10 10 v -10 -10 h 10 10 v -10 -10 h 10 10 v 10 10 h -10 -10 v 10 10 h -10 -10 v 10 10 h -10 -10 v 10 10 h -10 -10 v 10 10 h -10 -10 v 10 10 h -10 -10 z m 260,0 v -10 h 30 30 v 10 10 h -30 -30 z m 360.00003,0 v -10 h 10 10 v 10 10 h -10 -10 z m 180,0 v -10 h 10 10 v 10 10 h -10 -10 z m 460,0 v -10 h 10 10 v 10 10 h -10 -10 z m 520,-10 v -20 h 10 10 v 20 20 h -10 -10 z m -1360.00003,-30 v -30 h 10 10 v 30 30 h -10 -10 z m 160.00003,20 v -10 h 10 10 v 10 10 h -10 -10 z m 180,0 v -10 h 10 10 v 10 10 h -10 -10 z m 320,-10 v -20 h 10 10 v 20 20 h -10 -10 z m 120,-20 v -40 h 20 20 v 10 10 h -10 -10 v 30 30 h -10 -10 z m 140,20 v -20 h 10 10 v 20 20 h -10 -10 z m 340,10 v -10 h 10 10 v 10 10 h -10 -10 z m -1460.00003,-20 v -10 h 10 10 v 10 10 h -10 -10 z m 300.00003,0 v -10 h 20 20 v 10 10 h -20 -20 z m 300,0 v -10 h 10 10 v 10 10 h -10 -10 z m 140,0 v -10 h 10 10 v 10 10 h -10 -10 z m 280,0 v -10 h 10 10 v 10 10 h -10 -10 z m 60,0 v -10 h 10 10 v 10 10 h -10 -10 z m 420,0 v -10 h 10 10 v 10 10 h -10 -10 z m 240,0 v -10 h 10 10 v 10 10 h -10 -10 z m 40,0 v -10 h 10 10 v 10 10 h -10 -10 z m -1880.00003,-20 v -10 h 10 10 v 10 10 h -10 -10 z m 640.00003,0 v -10 h 10 10 v 10 10 h -10 -10 z m 260,0 v -10 h 10 10 v -10 -10 h 10 10 v 10 10 h -10 -10 v 10 10 h -10 -10 z m -1220.00003,-20 v -10 h 10 10 v 10 10 h -10 -10 z m 900.00003,0 v -10 h 10 10 v 10 10 h -10 -10 z m 400,0 v -10 h 10 10 v -10 -10 h 10 10 v 10 10 h -10 -10 v 10 10 h -10 -10 z m 600,0 v -10 h 10 10 v 10 10 h -10 -10 z m -1480.00003,-20 v -10 h 10 10 v -10 -10 h 20 20 v 10 10 h -20 -20 v 10 10 h -10 -10 z m 180,0 v -10 h 10 10 v 10 10 h -10 -10 z m 40,0 v -10 h 10 10 v 10 10 h -10 -10 z m 220.00003,0 v -10 h 10 10 v 10 10 h -10 -10 z m 660,0 v -10 h 10 10 v 10 10 h -10 -10 z m 60,0 v -10 h 10 10 v 10 10 h -10 -10 z m 40,0 v -10 h 10 10 v 10 10 h -10 -10 z m 440,0 v -10 h 10 10 v 10 10 h -10 -10 z m 120,0 v -10 h 10 10 v 10 10 h -10 -10 z m 40,0 v -10 h 10 10 v 10 10 h -10 -10 z m -2240.00003,-20 v -10 h 10 10 v 10 10 h -10 -10 z m 240,-10 v -20 h -10 -10 v -10 -10 h 10 10 v 10 10 h 10 10 v 20 20 h -10 -10 z m 580.00003,10 v -10 h -10 -10 v -10 -10 h 10 10 v 10 10 h 10 10 v 10 10 h -10 -10 z m 120,0 v -10 h 10 10 v 10 10 h -10 -10 z m 340,0 v -10 h -10 -10 v -10 -10 h -10 -10 v -10 -10 h 10 10 v 10 10 h 10 10 v 10 10 h 10 10 v 10 10 h -10 -10 z m 660,-10 v -20 h 10 10 v 20 20 h -10 -10 z m -1660.00003,-30 v -30 h 10 10 v 30 30 h -10 -10 z m 60,20 v -10 h 10 10 v 10 10 h -10 -10 z m 260,0 v -10 h 10 10 v 10 10 h -10 -10 z m 40,0 v -10 h 10 10 v 10 10 h -10 -10 z m 220.00003,-10 v -20 h -10 -10 v -10 -10 h 10 10 v 10 10 h 10 10 v -10 -10 h 10 10 v 20 20 h -10 -10 v 10 10 h -10 -10 z m 260,10 v -10 h 10 10 v -10 -10 h 10 10 v -10 -10 h 10 10 v -10 -10 h 10 10 v -10 -10 h 10 10 v -10 -10 h 10 10 v -10 -10 h 10 10 v 10 10 h -10 -10 v 10 10 h -10 -10 v 10 10 h -10 -10 v 10 10 h -10 -10 v 10 10 h -10 -10 v 10 10 h -10 -10 v 10 10 h -10 -10 z m 200,-10 v -20 h 10 10 v 20 20 h -10 -10 z m 300,10 v -10 h 10 10 v 10 10 h -10 -10 z m 280,0 v -10 h 10 10 v 10 10 h -10 -10 z m -1980.00003,-20 v -10 h 20 20 v 10 10 h -20 -20 z m 60,0 v -10 h 10 10 v 10 10 h -10 -10 z m 460,0 v -10 h -10 -10 v -10 -10 h 10 10 v 10 10 h 10 10 v 10 10 h -10 -10 z m 120,0 v -10 h 10 10 v 10 10 h -10 -10 z m 640.00003,0 v -10 h 10 10 v 10 10 h -10 -10 z m 860,-10 v -20 h 10 10 v 20 20 h -10 -10 z m 40,10 v -10 h 10 10 v 10 10 h -10 -10 z m 120,0 v -10 h 10 10 v 10 10 h -10 -10 z m 40,0 v -10 h 10 10 v 10 10 h -10 -10 z m -2100.00003,-20 v -10 h 10 10 v 10 10 h -10 -10 z m 460,-30 v -40 h 10 10 v 40 40 h -10 -10 z m 660.00003,30 v -10 h -10 -10 v -20 -20 h 10 10 v -10 -10 h 10 10 v 20 20 h -10 -10 v 10 10 h 10 10 v 10 10 h -10 -10 z m 360,0 v -10 h 10 10 v 10 10 h -10 -10 z m 60,0 v -10 h 10 10 v 10 10 h -10 -10 z m 180,0 v -10 h 10 10 v -50 -50 h 10 10 v 50 50 h 10 10 v 10 10 h -10 -10 v -10 -10 h -10 -10 v 10 10 h -10 -10 z m -1980.00003,-20 v -10 h 10 10 v 10 10 h -10 -10 z m 580,0 v -10 h 10 10 v -40 -40 h 10 10 v -10 -10 h 10 10 v 10 10 h 10 10 v 20 20 h 20 20 v 30 30 h -40 -40 v -10 -10 h -10 -10 v 10 10 h -10 -10 z m 460.00003,-10 v -20 h 10 10 v 20 20 h -10 -10 z m 800,10 v -10 h 10 10 v 10 10 h -10 -10 z m 100,0 v -10 h 10 10 v 10 10 h -10 -10 z m -1700.00003,-30 v -20 h 50 50 v 10 10 h -40 -40 v 10 10 h -10 -10 z m 1560.00003,10 v -10 h 10 10 v 10 10 h -10 -10 z m 540,0 v -10 h 10 10 v 10 10 h -10 -10 z m 40,-10 v -20 h 10 10 v 20 20 h -10 -10 z m -2400.00003,-10 v -10 h -10 -10 v -20 -20 h 10 10 v 20 20 h 10 10 v 10 10 h -10 -10 z m 1880.00003,0 v -10 h 20 20 v -10 -10 h 20 20 v -60 -60 h 30 30 v 10 10 h -20 -20 v 60 60 h 10 10 v 10 10 h -60 -60 z m 360,-10 v -20 h -10 -10 v -20 -20 h 10 10 v -10 -10 h 10 10 v 10 10 h -10 -10 v 20 20 h 10 10 v -10 -10 h 10 10 v 10 10 h -10 -10 v 20 20 h -10 -10 z m -1780.00003,-10 v -10 h 10 10 v 10 10 h -10 -10 z m 40,-10 v -20 h 10 10 v 20 20 h -10 -10 z m 340.00003,-40 v -60 h -20.00003 -20 v -10 -10 h 20 20.00003 v 10 10 h 10 10 v 50 50 h 10 10 v 10 10 h -20 -20 z m 240,50 v -10 h 10 10 v -10 -10 h 10 10 v -10 -10 h 10 10 v 10 10 h -10 -10 v 10 10 h -10 -10 v 10 10 h -10 -10 z m 380,-20 v -30 h 10 10 v 30 30 h -10 -10 z m 160,20 v -10 h 10 10 v 10 10 h -10 -10 z m 160,-10 v -20 h 10 10 v 20 20 h -10 -10 z m 560,10 v -10 h 20 20 v 10 10 h -20 -20 z m -1300,-30 v -20 h -10 -10 v -10 -10 h 10 10 v 10 10 h 10 10 v 20 20 h -10 -10 z m 700,10 v -10 h 10 10 v 10 10 h -10 -10 z m 660,0 v -10 h 10 10 v 10 10 h -10 -10 z m -2460.00003,-20 v -10 h 10 10 v 10 10 h -10 -10 z m 80,0 v -10 h 10 10 v 10 10 h -10 -10 z m 420,0 v -10 h -10 -10 v -10 -10 h 10 10 v 10 10 h 10 10 v 10 10 h -10 -10 z m 440.00003,0 v -10 h 10 10 v -10 -10 h 10 10 v 10 10 h -10 -10 v 10 10 h -10 -10 z m 480,0 v -10 h 10 10 v 10 10 h -10 -10 z m 40,0 v -10 h 20 20 v 10 10 h -20 -20 z m 200,-10 v -20 h 10 10 v 20 20 h -10 -10 z m 720,10 v -10 h 10 10 v 10 10 h -10 -10 z m -2340.00003,-20 v -10 h 10 10 v 10 10 h -10 -10 z m 80,0 v -10 h 10 10 v 10 10 h -10 -10 z m 1020.00003,0 v -10 h 10 10 v 10 10 h -10 -10 z m 80,0 v -10 h 10 10 v 10 10 h -10 -10 z m 920,0 v -10 h 20 20 v 10 10 h -20 -20 z m -2060.00003,-20 v -10 h 10 10 v 10 10 h -10 -10 z m 100,0 v -10 h 10 10 v 10 10 h -10 -10 z m 260,0 v -10 h 10 10 v 10 10 h -10 -10 z m 820.00003,0 v -10 h 50 50 v 10 10 h -50 -50 z m 940,0 v -10 h 20 20 v 10 10 h -20 -20 z m -2080.00003,-20 v -10 h 10 10 v 10 10 h -10 -10 z m 120,0 v -10 h 20 20 v 10 10 h -20 -20 z m 140,0 v -10 h 20 20 v 10 10 h -20 -20 z m 100,0 v -10 h -10 -10 v -10 -10 h 10 10 v 10 10 h 10 10 v 10 10 h -10 -10 z m 320,0 v -10 h 10 10 v 10 10 h -10 -10 z m 140.00003,0 v -10 h 10 10 v -10 -10 h 10 10 v 10 10 h -10 -10 v 10 10 h -10 -10 z m 240,0 v -10 h 10 10 v -10 -10 h 10 10 v 20 20 h -20 -20 z m 360,0 v -10 h 10 10 v 10 10 h -10 -10 z m 100,0 v -10 h 10 10 v 10 10 h -10 -10 z m 480,0 v -10 h 10 10 v 10 10 h -10 -10 z m -1960.00003,-20 v -10 h 20 20 v 10 10 h -20 -20 z m 840.00003,0 v -10 h 10 10 v 10 10 h -10 -10 z m 60,0 v -10 h -10 -10 v -10 -10 h -10 -10 v -10 -10 h -10 -10 v 10 10 h -10 -10 v -10 -10 h 10 10 v -10 -10 h 10 10 v 10 10 h 10 10 v 10 10 h 10 10 v 10 10 h 10 10 v 10 10 h -10 -10 z m 260,0 v -10 h 10 10 v -10 -10 h 20 20 v -10 -10 h 10 10 v -10 -10 h -10 -10 v -10 -10 h 10 10 v 10 10 h 10 10 v 10 10 h -10 -10 v 30 30 h -40 -40 z m 180,0 v -10 h 10 10 v -10 -10 h 70 70 v 10 10 h -70 -70 v 10 10 h -10 -10 z m 320,-10 v -20 h 10 10 v 20 20 h -10 -10 z m -1580.00003,-10 v -10 h 30 30 v 10 10 h -30 -30 z m 120,0 v -10 h 30 30 v 10 10 h -30 -30 z m 440,0 v -10 h 10 10 v 10 10 h -10 -10 z m 440.00003,-10 v -20 h 10 10 v -10 -10 h 10 10 v 10 10 h -10 -10 v 10 10 h 10 10 v 10 10 h -20 -20 z m -380.00003,-10 v -10 h 10 10 v 10 10 h -10 -10 z m 340.00003,0 v -10 h 10 10 v 10 10 h -10 -10 z m 100,0 v -10 h 10 10 v 10 10 h -10 -10 z m 40,-20 v -10 h 10 10 v 10 10 h -10 -10 z m 20,-80 v -10 h 10 10 v 10 10 h -10 -10 z m 40,0 v -10 h 10 10 v 10 10 h -10 -10 z m -100,-20 v -10 h 10 10 v -10 -10 h 10 10 v 10 10 h -10 -10 v 10 10 h -10 -10 z m 60,-40 v -10 h 10 10 v 10 10 h -10 -10 z"
         id="path26" />
      <path
         style="fill:#100977"
         d="m 447.82427,-389.6132 v -10 h -10 -10 v -30 -30 h -10 -10 v -20 -20 h -10 -10 v -20 -20 h -10 -10 v -20 -20 h -10 -10 v -20 -20 h -10 -10 v -30 -30 h -10 -10 v -20 -20 h -10 -10 v -20 -20 h -10 -10 v -20 -20 h -30 -30 v -10 -10 h -10 -10 v -20 -20 h -10 -10 v -10 -10 h -10 -10 v -20 -20 h -10 -10 v -20 -20 h -10 -10 v -10 -10 h 10 10 v -10 -10 h 20 20 v -10 -10 h 20 20 v -10 -10 h 20 20 v -10 -10 h 30 30 v -10 -10 h 50 50 v -10 -10 h 30 30 v 10 10 h 50 50 v 10 10 h 10 10 v 10 10 h 20 20 v 10 10 h 10 10 v 10 10 h 10 10 v 30 30 h 10 10 v 40 40 h 20 20 v -10 -10 h 30 30 v -10 -10 h 10 10 v 10 10 h 40 40 v -30 -30 h -20 -20 v -20 -20 h -10 -10 v -40 -40 h 20 20 v -10 -10 h 30 30 v -10 -10 h 30 30 v -10 -10 h 30.00003 30 v 40 40 h 10 10 v -10 -10 h 10 10 v -20 -20 h 10 10 v -10 -10 h 10 10 v 10 10 h 10 10 v 10 10 h 10 10 v 10 10 h 20 20 v 10 10 h 10 10 v 10 10 h 10 10 v 10 10 h 10 10 v -10 -10 h 10 10 v -10 -10 h 20 20 v -20 -20 h -10 -10 v -10 -10 h 10 10 v -20 -20 h 10 10 v -10 -10 h 10 10 v -10 -10 h 10 10 v -10 -10 h 10 10 v -10 -10 h 10 10 v -10 -10 h 10 10 v -20 -20 h 10 10 v 10 10 h 10 10 v 10 10 h 10 10 v 20 20 h 10 10 v 10 10 h 10 10 v 20 20 h -20 -20 v 10 10 h -10 -10 v 10 10 h -20 -20 v 10 10 h -10 -10 v 10 10 h 40 40 v 10 10 h 20 20 v 10 10 h 10 10 v 20 20 h 20 20 v -40 -40 h 10 10 v -10 -10 h 70 70 v -10 -10 h 10 10 v -10 -10 h 70 70 v 30 30 h 10 10 v 60 60 h 10 10 v 20 20 h 20 20 v -10 -10 h 80 80 v -10 -10 h -10 -10 v -60 -60 h 40 40 v 10 10 h 40 40 v 10 10 h 30 30 v 30 30 h 20 20 v -20 -20 h 40 40 v 10 10 h 40 40 v 10 10 h 10 10 v 10 10 h -10 -10 v 40 40 h -10 -10 v 30 30 h -10 -10 v 30 30 h -10 -10 v 30 30 h -10 -10 v 30 30 h -10 -10 v 30 30 h -10 -10 v 30 30 h -10 -10 v 30 30 h -10 -10 v 20 20 h -10 -10 v -10 -10 h -30 -30 v -10 -10 h -30 -30 v -30 -30 h -20 -20 v -10 -10 h -50 -50 v -40 -40 h -10 -10 v 10 10 h -40 -40 v 30 30 h -90 -90 v -10 -10 h -10 -10 v -40 -40 h -10 -10 v 10 10 h -10 -10 v -20 -20 h -10 -10 v -10 -10 h -10 -10 v -10 -10 h -10 -10 v 40 40 h -10 -10 v -10 -10 h -70 -70 v -10 -10 h -10 -10 v -40 -40 h -10 -10 v 10 10 h -20 -20 v 10 10 h -40 -40 v 80 80 h -10 -10 v -10 -10 h -20 -20 v -10 -10 h -30 -30 v -10 -10 h -10 -10 v -10 -10 h -20 -20 v -10 -10 h -20 -20 v -10 -10 h -30 -30 v -10 -10 h -20 -20 v -10 -10 h -10 -10 v 80 80 h -70.00003 -70 v -20 -20 h -10 -10 v -10 -10 h -10 -10 v 10 10 h -20 -20 v 10 10 h -20 -20 v 10 10 h -50 -50 v -10 -10 h -20 -20 v -10 -10 h -10 -10 v -10 -10 h -10 -10 v -20 -20 h -10 -10 v -40 -40 h -20 -20 v 10 10 h -10 -10 v 20 20 h 10 10 v 40 40 h 10 10 v 40 40 h 10 10 v 20 20 h -20 -20 v 10 10 h -30 -30 v 10 10 h -10 -10 v 10 10 h -20 -20 z m 80,-60 v -10 h 20 20 v -30 -30 h -10 -10 v -30 -30 h -10 -10 v -40 -40 h -10 -10 v -10 -10 h 10 10 v -10 -10 h 10 10 v -10 -10 h 10 10 v -10 -10 h 10 10 v -10 -10 h 10 10 v -10 -10 h 10 10 v -20 -20 h 10 10 v -70 -70 h -10 -10 v -20 -20 h -10 -10 v -10 -10 h -20 -20 v -10 -10 h -20 -20 v -10 -10 h -90 -90 v 10 10 h -30 -30 v 10 10 h -30 -30 v 10 10 h -20 -20 v 10 10 h -20 -20 v 20 20 h 10 10 v 10 10 h 10 10 v 20 20 h 10 10 v 20 20 h 20 20 v -10 -10 h 10 10 v 10 10 h 10 10 v 20 20 h 10 10 v 20 20 h 10 10 v 20 20 h 10 10 v 30 30 h 10 10 v 20 20 h 10 10 v 20 20 h 10 10 v 20 20 h 10 10 v 30 30 h 10 10 v 20 20 h 40 40 z m 0,-340 v -10 h 10 10 v -20 -20 h -10 -10 v -10 -10 h -30 -30 v -10 -10 h -10 -10 v -20 -20 h 50 50 v 10 10 h 10 10 v 50 50 h -10 -10 v 10 10 h -10 -10 z m 1860.00003,340 v -10 h 10 10 v -30 -30 h 10 10 v -30 -30 h 10 10 v -40 -40 h 10 10 v -30 -30 h 10 10 v -30 -30 h 10 10 v -30 -30 h 10 10 v -30 -30 h 10 10 v -30 -30 h -50 -50 v -10 -10 h -10 -10 v 10 10 h -10 -10 v 50 50 h -10 -10 v 30 30 h -10 -10 v -40 -40 h -10 -10 v -50 -50 h -10 -10 v -10 -10 h -20 -20 v -10 -10 h -60 -60 v 20 20 h 10 10 v 50 50 h -20 -20 v -10 -10 h -60 -60 v 10 10 h -20 -20 v 10 10 h -10 -10 v 20 20 h -10 -10 v 10 10 h -10 -10 v 70 70 h 10 10 v 10 10 h 10 10 v 10 10 h 90 90 v -10 -10 h 10 10 v -20 -20 h 10 10 v -10 -10 h 10 10 v -30 -30 h 10 10 v -10 -10 h -10 -10 v -30 -30 h -10 -10 v -20 -20 h 10 10 v 10 10 h 10 10 v 30 30 h 10 10 v 30 30 h -10 -10 v 30 30 h -10 -10 v 10 10 h -10 -10 v 20 20 h -10 -10 v 40 40 h 50 50 v -40 -40 h 10 10 v -30 -30 h 10 10 v 110 110 h 20 20 v 10 10 h 20 20 z m -360,-310 v -20 h -10 -10 v -20 -20 h 10 10 v -10 -10 h 10 10 v 30 30 h 40 40 v -10 -10 h 10 10 v 20 20 h -10 -10 v 10 10 h -50 -50 z m -1040.00003,210 v -10 h 20.00003 20 v -80 -80 h 30 30 v 10 10 h 20 20 v 10 10 h 20 20 v 10 10 h 20 20 v 10 10 h 20 20 v 10 10 h 20 20 v 10 10 h 20 20 v 10 10 h 30 30 v -40 -40 h -10 -10 v -10 -10 h -20 -20 v -10 -10 h -20 -20 v -10 -10 h -20 -20 v -10 -10 h -10 -10 v -20 -20 h -20 -20 v -10 -10 h -30 -30 v -10 -10 h -10 -10 v -20 -20 h 20 20 v 20 20 h 20 20 v -30 -30 h -10 -10 v 10 10 h -10 -10 v -20 -20 h 10 10 v -10 -10 h 10 10 v -10 -10 h 10 10 v -10 -10 h 10 10 v -20 -20 h -10 -10 v -10 -10 h -20 -20 v -10 -10 h -10 -10 v -10 -10 h -10 -10 v -10 -10 h -10 -10 v 20 20 h -10 -10 v 10 10 h -10 -10 v 10 10 h -10 -10 v 20 20 h -10 -10 v -50 -50 h -10 -10 v -10 -10 h -20.00003 -20 v 10 10 h -30 -30 v 10 10 h -20 -20 v 20 20 h 20 20 v 70 70 h 10 10 v 20 20 h 10 10 v 20 20 h 10 10 v 50 50 h -10 -10 v 70 70 h 20 20 z m -160,-20 v -10 h 20 20 v -10 -10 h 10 10 v -10 -10 h 10 10 v -20 -20 h 10 10 v -20 -20 h 10 10 v -30 -30 h -10 -10 v -20 -20 h -10 -10 v -20 -20 h -20 -20 v -10 -10 h -70 -70 v 10 10 h -10 -10 v 10 10 h -10 -10 v 10 10 h -10 -10 v 10 10 h -10 -10 v 10 10 h -10 -10 v 60 60 h 10 10 v 20 20 h 10 10 v 10 10 h 20 20 v 10 10 h 60 60 z m -80,-150 v -20 h -10 -10 v -20 -20 h 10 10 v -10 -10 h 10 10 v 20 20 h 10 10 v 10 10 h 30 30 v -10 -10 h 10 10 v 20 20 h -10 -10 v 10 10 h -50 -50 z m 1240.00003,150 v -10 h -10 -10 v -10 -10 h -10 -10 v -10 -10 h -10 -10 v -10 -10 h -10 -10 v -20 -20 h -10 -10 v -50 -50 h 10 10 v -20 -20 h 10 10 v -20 -20 h 10 10 v -10 -10 h -10 -10 v -50 -50 h -10 -10 v -50 -50 h -40 -40 v 30 30 h -10 -10 v 30 30 h -10 -10 v -30 -30 h -10 -10 v -20 -20 h -60 -60 v 30 30 h -10 -10 v 70 70 h -10 -10 v 20 20 h 20 20 v 10 10 h -10 -10 v 10 10 h -10 -10 v 20 20 h -10 -10 v 40 40 h 10 10 v 10 10 h 50 50 v -30 -30 h 10 10 v -30 -30 h 10 10 v 20 20 h 10 10 v 20 20 h 20 20 v -20 -20 h 10 10 v -30 -30 h 10 10 v 40 40 h 10 10 v 70 70 h 60 60 z m -500,-160 v -10 h 30 30 v -10 -10 h 10 10 v -10 -10 h 10 10 v -20 -20 h -10 -10 v -10 -10 h -10 -10 v -10 -10 h -30 -30 v 10 10 h -10 -10 v 10 10 h -20 -20 v -10 -10 h 10 10 v -10 -10 h 10 10 v -10 -10 h 10 10 v -10 -10 h 10 10 v -10 -10 h 10 10 v -10 -10 h 10 10 v -30 -30 h -20 -20 v -10 -10 h -20 -20 v -10 -10 h -50 -50 v 10 10 h -20 -20 v 10 10 h -20 -20 v 10 10 h -10 -10 v 10 10 h -10 -10 v 20 20 h -10 -10 v 60 60 h 10 10 v 10 10 h 10 10 v 20 20 h 30 30 v 10 10 h 80 80 z m -160,-160 v -30 h 10 10 v -10 -10 h 10 10 v -10 -10 h 40 40 v 10 10 h -10 -10 v 10 10 h -10 -10 v 10 10 h -30 -30 v 20 20 h -10 -10 z m 260,-10 v -40 h -10 -10 v 10 10 h -10 -10 v 20 20 h 10 10 v 10 10 h 10 10 z m -200,-190 v -10 h 20 20 v -10 -10 h 20 20 v -10 -10 h 20 20 v -20 -20 h -10 -10 v -20 -20 h -20 -20 v 10 10 h -10 -10 v 10 10 h -10 -10 v 10 10 h -10 -10 v 10 10 h -10 -10 v 10 10 h -10 -10 v 20 20 h 20 20 z m 1080,660 v -30 h -10 -10 v -10 -10 h 40 40 v 10 10 h 10 10 v 10 10 h 10 10 v -10 -10 h 10 10 v -10 -10 h 10 10 v 40 40 h -10 -10 v -20 -20 h -10 -10 v 10 10 h -10 -10 v -10 -10 h -10 -10 v 20 20 h -10 -10 v -30 -30 h -10 -10 v 30 30 h -10 -10 z"
         id="path24" />
    </g>
  </g>
</svg>
